<svg xmlns="http://www.w3.org/2000/svg" width="20.426" height="20.426" viewBox="0 0 20.426 20.426">
  <g id="company" transform="translate(-24.788 -24.787)">
    <path id="Path_114" data-name="Path 114" d="M43.81,53.25H40.294a.456.456,0,0,0-.456.456v1.5a.456.456,0,0,0,.456.456H43.81a.456.456,0,0,0,.456-.456v-1.5a.456.456,0,0,0-.456-.456Zm-.456,1.5h-2.6v-.584h2.6Z" transform="translate(-11.13 -21.05)" fill="#68c0b4"/>
    <path id="Path_115" data-name="Path 115" d="M67.717,34.415h4.164a.456.456,0,0,0,.456-.456v-1.5a.456.456,0,0,0-.456-.456H67.717a.456.456,0,0,0-.456.456v1.5a.456.456,0,0,0,.456.456Zm.456-1.5h3.252V33.5H68.173Z" transform="translate(-31.411 -5.34)" fill="#68c0b4"/>
    <path id="Path_116" data-name="Path 116" d="M67.717,47.006h4.164a.456.456,0,0,0,.456-.456v-1.5a.456.456,0,0,0-.456-.455H67.717a.456.456,0,0,0-.456.456v1.5A.456.456,0,0,0,67.717,47.006Zm.456-1.5h3.252v.584H68.173Z" transform="translate(-31.411 -14.653)" fill="#68c0b4"/>
    <path id="Path_117" data-name="Path 117" d="M67.717,59.593h4.164a.456.456,0,0,0,.456-.456v-1.5a.456.456,0,0,0-.456-.456H67.717a.456.456,0,0,0-.456.456v1.5a.456.456,0,0,0,.456.456Zm.456-1.5h3.252v.584H68.173Z" transform="translate(-31.411 -23.961)" fill="#68c0b4"/>
    <path id="Path_118" data-name="Path 118" d="M43.81,65.633H40.294a.456.456,0,0,0-.456.456v1.5a.456.456,0,0,0,.456.456H43.81a.456.456,0,0,0,.456-.456v-1.5a.456.456,0,0,0-.456-.456Zm-.456,1.5h-2.6v-.584h2.6Z" transform="translate(-11.13 -30.208)" fill="#68c0b4"/>
    <path id="Path_119" data-name="Path 119" d="M43.81,78.015H40.294a.456.456,0,0,0-.456.456v1.5a.456.456,0,0,0,.456.456H43.81a.456.456,0,0,0,.456-.456v-1.5a.456.456,0,0,0-.456-.456Zm-.456,1.5h-2.6v-.584h2.6Z" transform="translate(-11.13 -39.365)" fill="#68c0b4"/>
    <path id="Path_120" data-name="Path 120" d="M44.758,44.3H42.923V25.243a.456.456,0,0,0-.456-.456H34.309a.456.456,0,0,0-.456.456v5.069H27.534a.456.456,0,0,0-.456.456V44.3H25.244a.456.456,0,0,0,0,.912H44.758a.456.456,0,0,0,0-.912ZM34.765,25.7h7.247V44.3H40.493V39.854a.456.456,0,0,0-.456-.456h-3.3a.456.456,0,0,0-.456.456V44.3H34.765Zm4.817,18.6H37.194V40.31h2.388ZM27.99,31.223h5.863V44.3H27.99Z" fill="#68c0b4"/>
  </g>
</svg>
