<svg xmlns="http://www.w3.org/2000/svg" width="20" height="20" viewBox="0 0 20 20">
  <g id="Group_154" data-name="Group 154" transform="translate(-41 -42.276)">
    <path id="Path_158" data-name="Path 158" d="M51,42.276a10,10,0,1,0,10,10,10.011,10.011,0,0,0-10-10Zm-.586,4.908a13.67,13.67,0,0,1-2.616-.367c.135-.319.281-.625.438-.915a5.06,5.06,0,0,1,2.178-2.328Zm0,1.173V51.69h-3.66a14.727,14.727,0,0,1,.64-3.767,14.837,14.837,0,0,0,3.02.434Zm0,4.5v3.333a14.838,14.838,0,0,0-3.02.434,14.727,14.727,0,0,1-.64-3.767Zm0,4.506v3.611a5.06,5.06,0,0,1-2.178-2.328c-.157-.29-.3-.6-.438-.915a13.669,13.669,0,0,1,2.616-.367Zm1.172,0a13.67,13.67,0,0,1,2.616.367c-.135.319-.281.625-.438.915a5.06,5.06,0,0,1-2.178,2.328Zm0-1.173V52.862h3.66a14.727,14.727,0,0,1-.64,3.767,14.838,14.838,0,0,0-3.02-.434Zm0-4.5V48.357a14.837,14.837,0,0,0,3.02-.434,14.727,14.727,0,0,1,.64,3.767Zm0-4.506V43.573A5.06,5.06,0,0,1,53.764,45.9c.157.29.3.6.438.915a13.67,13.67,0,0,1-2.616.367Zm3.208-1.842a8.9,8.9,0,0,0-.948-1.424,8.838,8.838,0,0,1,3.125,1.861,11.073,11.073,0,0,1-1.635.707,11.881,11.881,0,0,0-.542-1.144Zm-7.589,0a11.88,11.88,0,0,0-.542,1.144,11.09,11.09,0,0,1-1.635-.707,8.838,8.838,0,0,1,3.125-1.861,8.9,8.9,0,0,0-.948,1.424Zm-.939,2.246a15.693,15.693,0,0,0-.686,4.1H42.192a8.787,8.787,0,0,1,2-5.033,12.051,12.051,0,0,0,2.071.931Zm-.686,5.273a15.692,15.692,0,0,0,.686,4.1,12.052,12.052,0,0,0-2.071.931,8.787,8.787,0,0,1-2-5.033Zm1.082,5.2a11.88,11.88,0,0,0,.542,1.144,8.906,8.906,0,0,0,.948,1.424,8.836,8.836,0,0,1-3.125-1.861,11.073,11.073,0,0,1,1.634-.707Zm8.131,1.144a11.881,11.881,0,0,0,.542-1.144,11.09,11.09,0,0,1,1.635.707,8.838,8.838,0,0,1-3.125,1.861,8.9,8.9,0,0,0,.948-1.424Zm.939-2.246a15.693,15.693,0,0,0,.686-4.1h3.389a8.787,8.787,0,0,1-2,5.033,12.052,12.052,0,0,0-2.071-.931Zm.686-5.273a15.691,15.691,0,0,0-.686-4.1,12.051,12.051,0,0,0,2.071-.931,8.787,8.787,0,0,1,2,5.033Zm0,0" fill="#68c0b4"/>
  </g>
</svg>
