<svg xmlns="http://www.w3.org/2000/svg" width="19.091" height="22.272" viewBox="0 0 19.091 22.272">
  <path id="Icon_metro-file-pdf" data-name="Icon metro-file-pdf" d="M20.817,6.926a2.892,2.892,0,0,1,.6.945,2.868,2.868,0,0,1,.249,1.094V23.282a1.188,1.188,0,0,1-1.193,1.193H3.764a1.188,1.188,0,0,1-1.193-1.193V3.4A1.188,1.188,0,0,1,3.764,2.2H14.9a2.869,2.869,0,0,1,1.094.249,2.892,2.892,0,0,1,.945.6ZM15.3,3.894V8.567h4.673a1.358,1.358,0,0,0-.273-.51l-3.89-3.89a1.358,1.358,0,0,0-.51-.273Zm4.773,18.991V10.158H14.9a1.188,1.188,0,0,1-1.193-1.193V3.794H4.162v19.09H20.071Zm-6.389-7.37a9.457,9.457,0,0,0,1.044.7,12.334,12.334,0,0,1,1.454-.087q1.827,0,2.2.609a.6.6,0,0,1,.025.646.036.036,0,0,1-.012.025l-.025.025v.012q-.075.472-.882.472a5.127,5.127,0,0,1-1.429-.249,9.063,9.063,0,0,1-1.616-.659,22.381,22.381,0,0,0-4.872,1.032q-1.9,3.256-3.008,3.256a.723.723,0,0,1-.348-.087l-.3-.149Q5.9,21.045,5.84,21a.514.514,0,0,1-.075-.447,2.7,2.7,0,0,1,.7-1.137,6.007,6.007,0,0,1,1.641-1.2.181.181,0,0,1,.286.075.072.072,0,0,1,.025.05q.646-1.056,1.33-2.448a18.969,18.969,0,0,0,1.293-3.256,10.046,10.046,0,0,1-.379-1.982,4.832,4.832,0,0,1,.081-1.585q.137-.5.522-.5h.273a.524.524,0,0,1,.435.186.993.993,0,0,1,.112.845.27.27,0,0,1-.05.1.323.323,0,0,1,.012.1v.373a16.274,16.274,0,0,1-.174,2.386,6.288,6.288,0,0,0,1.815,2.958ZM6.523,20.623a5.488,5.488,0,0,0,1.7-1.964A7.085,7.085,0,0,0,7.138,19.7,4.131,4.131,0,0,0,6.523,20.623ZM11.47,9.188a3.7,3.7,0,0,0-.025,1.641q.012-.087.087-.547,0-.037.087-.534a.28.28,0,0,1,.05-.1.036.036,0,0,1-.012-.025A.025.025,0,0,0,11.65,9.6a.025.025,0,0,1-.006-.019.715.715,0,0,0-.162-.447.036.036,0,0,1-.012.025v.025ZM9.929,17.4a18.231,18.231,0,0,1,3.53-1.007,1.875,1.875,0,0,1-.162-.118,2.226,2.226,0,0,1-.2-.168,6.583,6.583,0,0,1-1.578-2.187,16.608,16.608,0,0,1-1.032,2.448q-.373.7-.559,1.032Zm8.029-.2a2.974,2.974,0,0,0-1.74-.3,4.7,4.7,0,0,0,1.541.348,1.206,1.206,0,0,0,.224-.012q0-.012-.025-.037Z" transform="translate(-2.571 -2.204)" fill="#68c0b4"/>
</svg>
