<svg id="Group_151" data-name="Group 151" xmlns="http://www.w3.org/2000/svg" width="23" height="20.034" viewBox="0 0 23 20.034">
  <path id="Path_154" data-name="Path 154" d="M235.658,139.092a3.908,3.908,0,1,0-3.908-3.908,3.912,3.912,0,0,0,3.908,3.908Zm0-6.469a2.56,2.56,0,1,1-2.561,2.56,2.563,2.563,0,0,1,2.561-2.56Zm0,0" transform="translate(-224.158 -131.276)" fill="#68c0b4"/>
  <path id="Path_155" data-name="Path 155" d="M390.221,184.217a2.471,2.471,0,1,0-2.471-2.471,2.473,2.473,0,0,0,2.471,2.471Zm0-3.594a1.123,1.123,0,1,1-1.123,1.123,1.124,1.124,0,0,1,1.123-1.123Zm0,0" transform="translate(-370.814 -176.401)" fill="#68c0b4"/>
  <path id="Path_156" data-name="Path 156" d="M124.95,287.276h-1.042a3.055,3.055,0,0,0-2.771,1.768,5.423,5.423,0,0,0-4.008-1.768h-1.256a5.424,5.424,0,0,0-4.008,1.768,3.055,3.055,0,0,0-2.771-1.768H108.05a3.044,3.044,0,0,0-3.05,3.032v4.906a1.32,1.32,0,0,0,1.321,1.316h4.121a1.575,1.575,0,0,0,1.567,1.437h8.982a1.575,1.575,0,0,0,1.567-1.437h4.073A1.367,1.367,0,0,0,128,295.167v-4.859a3.044,3.044,0,0,0-3.05-3.032Zm-18.6,3.032a1.7,1.7,0,0,1,1.7-1.684h1.042a1.7,1.7,0,0,1,1.7,1.684v.461c-.453,1.18-.359,1.887-.359,4.413h-4.088Zm14.869,6.086a.226.226,0,0,1-.226.226h-8.982a.226.226,0,0,1-.226-.226v-3.682a4.093,4.093,0,0,1,4.089-4.089h1.256a4.093,4.093,0,0,1,4.089,4.089Zm5.436-1.227c0,.023.251.015-4.088.015,0-2.545.093-3.235-.359-4.413v-.461a1.7,1.7,0,0,1,1.7-1.684h1.042a1.7,1.7,0,0,1,1.7,1.684Zm0,0" transform="translate(-105 -277.933)" fill="#68c0b4"/>
  <path id="Path_157" data-name="Path 157" d="M126.221,184.217a2.471,2.471,0,1,0-2.471-2.471,2.473,2.473,0,0,0,2.471,2.471Zm0-3.594a1.123,1.123,0,1,1-1.123,1.123,1.124,1.124,0,0,1,1.123-1.123Zm0,0" transform="translate(-122.627 -176.401)" fill="#68c0b4"/>
</svg>
