<svg xmlns="http://www.w3.org/2000/svg" width="11" height="15.644" viewBox="0 0 11 15.644">
  <g id="placeholder" transform="translate(-76)">
    <g id="Group_37" data-name="Group 37" transform="translate(76)">
      <g id="Group_36" data-name="Group 36" transform="translate(0)">
        <path id="Path_97" data-name="Path 97" d="M81.5,0a5.5,5.5,0,0,0-4.679,8.392l4.366,7.036a.458.458,0,0,0,.389.217h0a.458.458,0,0,0,.39-.223l4.255-7.1A5.5,5.5,0,0,0,81.5,0Zm3.938,7.847-3.868,6.458L77.6,7.909a4.586,4.586,0,1,1,7.837-.062Z" transform="translate(-76)" fill="#68c0b4"/>
      </g>
    </g>
    <g id="Group_39" data-name="Group 39" transform="translate(78.75 2.75)">
      <g id="Group_38" data-name="Group 38" transform="translate(0)">
        <path id="Path_98" data-name="Path 98" d="M168.75,90a2.75,2.75,0,1,0,2.75,2.75A2.753,2.753,0,0,0,168.75,90Zm0,4.589a1.839,1.839,0,1,1,1.836-1.839A1.841,1.841,0,0,1,168.75,94.589Z" transform="translate(-166 -90)" fill="#68c0b4"/>
      </g>
    </g>
  </g>
</svg>
