<svg xmlns="http://www.w3.org/2000/svg" width="66.966" height="82.516" viewBox="0 0 66.966 82.516">
  <path id="Path_35" data-name="Path 35" d="M654.884,67.232a29.568,29.568,0,0,0-11.7-24.133,34.217,34.217,0,0,0-43.568,0,29.574,29.574,0,0,0-11.7,24.133c0,9.669,3.869,17.777,11.7,24.133a32.711,32.711,0,0,0,5.887,3.963c-.814-.01-1.675.022-2.616.1-8.642.685-11.913,7.215-12.029,9.552l.36.179c1.886-3.39,5.333-5.532,11.615-1.668s17.993,15.6,30.7,14.178,17.062-9.227,18.6-13.888l-.625-.268s-4.581,10.332-21.185,2.132c-5.951-2.936-10.042-5.165-13.248-6.788a35.282,35.282,0,0,0,4.284.251,33.663,33.663,0,0,0,21.83-7.741c7.833-6.356,11.7-14.464,11.7-24.133" transform="translate(-587.918 -35.269)" fill="#68c0b4"/>
</svg>
