<svg xmlns="http://www.w3.org/2000/svg" width="59.297" height="73.067" viewBox="0 0 59.297 73.067">
  <g id="Group_42" data-name="Group 42" transform="translate(-1374 -914.333)">
    <g id="Group_40" data-name="Group 40" transform="translate(786.082 879.064)">
      <path id="Path_35" data-name="Path 35" d="M647.215,63.572A26.182,26.182,0,0,0,636.856,42.2a30.3,30.3,0,0,0-38.579,0,26.188,26.188,0,0,0-10.359,21.369c0,8.562,3.426,15.741,10.359,21.369a28.962,28.962,0,0,0,5.213,3.51c-.721-.009-1.484.02-2.316.086-7.652.607-10.548,6.388-10.652,8.459l.319.158c1.67-3,4.723-4.9,10.285-1.477s15.932,13.81,27.182,12.555,15.108-8.171,16.469-12.3l-.554-.237s-4.057,9.149-18.759,1.888c-5.27-2.6-8.892-4.573-11.731-6.01a31.241,31.241,0,0,0,3.793.222,29.808,29.808,0,0,0,19.33-6.854c6.936-5.628,10.359-12.808,10.359-21.369" transform="translate(0 0)" fill="#68c0b4"/>
    </g>
    <path id="play" d="M45.15,15.214,18.483.214A1.667,1.667,0,0,0,16,1.667v30a1.667,1.667,0,0,0,2.483,1.453l26.667-15a1.667,1.667,0,0,0,0-2.907Z" transform="translate(1376 926.333)" fill="none" stroke="#fff" stroke-width="3"/>
  </g>
</svg>
