<svg xmlns="http://www.w3.org/2000/svg" width="59.297" height="73.067" viewBox="0 0 59.297 73.067">
  <g id="Group_58" data-name="Group 58" transform="translate(-930.351 -929.3)">
    <g id="Group_40" data-name="Group 40" transform="translate(342.433 894.031)">
      <path id="Path_35" data-name="Path 35" d="M647.215,63.572A26.182,26.182,0,0,0,636.856,42.2a30.3,30.3,0,0,0-38.579,0,26.188,26.188,0,0,0-10.359,21.369c0,8.562,3.426,15.741,10.359,21.369a28.962,28.962,0,0,0,5.213,3.51c-.721-.009-1.484.02-2.316.086-7.652.607-10.548,6.388-10.652,8.459l.319.158c1.67-3,4.723-4.9,10.285-1.477s15.932,13.81,27.182,12.555,15.108-8.171,16.469-12.3l-.554-.237s-4.057,9.149-18.759,1.888c-5.27-2.6-8.892-4.573-11.731-6.01a31.241,31.241,0,0,0,3.793.222,29.808,29.808,0,0,0,19.33-6.854c6.936-5.628,10.359-12.808,10.359-21.369" transform="translate(0 0)" fill="#fff"/>
    </g>
    <g id="add" transform="translate(943.308 941.3)">
      <g id="Group_55" data-name="Group 55">
        <g id="Group_54" data-name="Group 54">
          <path id="Path_134" data-name="Path 134" d="M16.692,0A16.692,16.692,0,1,0,33.385,16.692,16.711,16.711,0,0,0,16.692,0Zm0,30.8A14.106,14.106,0,1,1,30.8,16.692,14.123,14.123,0,0,1,16.692,30.8Z" fill="#68c0b4"/>
        </g>
      </g>
      <g id="Group_57" data-name="Group 57" transform="translate(8.934 8.818)">
        <g id="Group_56" data-name="Group 56">
          <path id="Path_135" data-name="Path 135" d="M151.245,141.7h-5.172v-5.172a1.293,1.293,0,0,0-2.586,0V141.7h-5.172a1.293,1.293,0,1,0,0,2.586h5.172v5.172a1.293,1.293,0,0,0,2.586,0v-5.172h5.172a1.293,1.293,0,1,0,0-2.586Z" transform="translate(-137.022 -135.238)" fill="#68c0b4"/>
        </g>
      </g>
    </g>
  </g>
</svg>
