<svg id="placeholder" xmlns="http://www.w3.org/2000/svg" width="5.436" height="7.732" viewBox="0 0 5.436 7.732">
  <g id="Group_37" data-name="Group 37" transform="translate(0)">
    <g id="Group_36" data-name="Group 36" transform="translate(0)">
      <path id="Path_97" data-name="Path 97" d="M78.718,0a2.719,2.719,0,0,0-2.312,4.148l2.158,3.477a.227.227,0,0,0,.192.107h0a.226.226,0,0,0,.193-.11l2.1-3.511A2.719,2.719,0,0,0,78.718,0Zm1.946,3.878L78.753,7.07,76.791,3.909a2.267,2.267,0,1,1,3.873-.031Z" transform="translate(-76)" fill="#fff"/>
    </g>
  </g>
  <g id="Group_39" data-name="Group 39" transform="translate(1.359 1.359)">
    <g id="Group_38" data-name="Group 38" transform="translate(0)">
      <path id="Path_98" data-name="Path 98" d="M167.359,90a1.359,1.359,0,1,0,1.359,1.359A1.361,1.361,0,0,0,167.359,90Zm0,2.268a.909.909,0,1,1,.908-.909A.91.91,0,0,1,167.359,92.268Z" transform="translate(-166 -90)" fill="#fff"/>
    </g>
  </g>
</svg>
