<svg xmlns="http://www.w3.org/2000/svg" xmlns:xlink="http://www.w3.org/1999/xlink" width="35.003" height="43.133" viewBox="0 0 35.003 43.133">
  <defs>
    <clipPath id="clip-path">
      <rect width="35.003" height="43.133" fill="none"/>
    </clipPath>
  </defs>
  <g id="Repeat_Grid_2" data-name="Repeat Grid 2" clip-path="url(#clip-path)">
    <g id="Group_588" data-name="Group 588" transform="translate(-119.824 -1723.652)">
      <path id="Path_121" data-name="Path 121" d="M360.3,310.308a15.455,15.455,0,0,0-6.115-12.614,17.885,17.885,0,0,0-22.774,0,16.071,16.071,0,0,0,0,25.229,17.112,17.112,0,0,0,3.077,2.071c-.426,0-.875.012-1.367.052-4.517.357-6.227,3.77-6.288,4.992l.188.093c.985-1.772,2.787-2.892,6.072-.871s9.4,8.151,16.046,7.411,8.918-4.825,9.722-7.261l-.327-.14s-2.394,5.4-11.073,1.115c-3.111-1.535-5.249-2.7-6.925-3.549a18.625,18.625,0,0,0,2.239.131,17.605,17.605,0,0,0,11.411-4.045,15.588,15.588,0,0,0,6.115-12.615" transform="translate(-205.479 1430.051)" fill="#68c0b4"/>
      <g id="Group_43" data-name="Group 43" transform="translate(127.166 1730.031)">
        <path id="Path_122" data-name="Path 122" d="M341.354,307.733h-9.188c-.158,0-.367.047-.464-.035-.185-.154-.427-.387-.424-.582s.263-.406.456-.547c.106-.078.307-.033.466-.033h18.425a3.242,3.242,0,0,1,.38.011.552.552,0,0,1,.545.554.575.575,0,0,1-.531.622,2.237,2.237,0,0,1-.427.01h-9.237" transform="translate(-331.24 -296.951)" fill="#fff"/>
        <path id="Path_123" data-name="Path 123" d="M347.841,315.382v-.567c0-1.49,0-2.981,0-4.471,0-.464.214-.7.592-.694s.579.244.58.711q.006,2.639,0,5.281a.815.815,0,0,1-.894.93c-1.776.011-3.553.007-5.328,0-.456,0-.705-.232-.7-.6s.274-.589.719-.59c1.648-.006,3.3,0,5.028,0" transform="translate(-328.7 -296.216)" fill="#fff"/>
        <path id="Path_124" data-name="Path 124" d="M332.419,315.382h.559c1.474,0,2.949,0,4.423,0,.5,0,.747.212.75.6s-.24.593-.746.594q-2.591.007-5.184,0c-.7,0-.971-.283-.972-.99q-.006-2.591,0-5.184c0-.511.191-.75.582-.751s.585.242.587.751c0,1.474,0,2.949,0,4.422v.559" transform="translate(-331.247 -296.216)" fill="#fff"/>
        <path id="Path_125" data-name="Path 125" d="M347.839,299.944h-4.634c-.19,0-.382.01-.57-.006a.539.539,0,0,1-.533-.606.533.533,0,0,1,.536-.556c.079-.006.159,0,.238,0,1.713,0,3.427,0,5.141,0,.7,0,1,.29,1,.967q.006,2.6,0,5.189c0,.488-.211.764-.575.774-.393.011-.6-.253-.6-.792q0-2.189,0-4.38v-.588" transform="translate(-328.698 -298.771)" fill="#fff"/>
        <path id="Path_126" data-name="Path 126" d="M332.419,299.944v.566q0,2.212,0,4.426c0,.49-.21.762-.578.769s-.59-.256-.59-.751q0-2.617,0-5.234c0-.662.293-.945.964-.946q2.593-.006,5.186,0c.516,0,.751.188.752.582s-.237.587-.747.588c-1.634,0-3.266,0-4.986,0" transform="translate(-331.247 -298.771)" fill="#fff"/>
      </g>
    </g>
  </g>
</svg>
